<svg xmlns="http://www.w3.org/2000/svg" width="23.681" height="23.675" viewBox="0 0 23.681 23.675">
  <path id="Icon_awesome-instagram" data-name="Icon awesome-instagram" d="M11.838,8.005a6.07,6.07,0,1,0,6.07,6.07A6.06,6.06,0,0,0,11.838,8.005Zm0,10.016a3.946,3.946,0,1,1,3.946-3.946,3.954,3.954,0,0,1-3.946,3.946ZM19.572,7.757a1.416,1.416,0,1,1-1.416-1.416A1.413,1.413,0,0,1,19.572,7.757Zm4.02,1.437A7.007,7.007,0,0,0,21.68,4.233a7.053,7.053,0,0,0-4.961-1.912c-1.955-.111-7.813-.111-9.768,0A7.042,7.042,0,0,0,1.99,4.228,7.029,7.029,0,0,0,.078,9.189c-.111,1.955-.111,7.813,0,9.768A7.007,7.007,0,0,0,1.99,23.917,7.062,7.062,0,0,0,6.951,25.83c1.955.111,7.813.111,9.768,0a7.007,7.007,0,0,0,4.961-1.912,7.053,7.053,0,0,0,1.912-4.961c.111-1.955.111-7.808,0-9.763Zm-2.525,11.86A4,4,0,0,1,18.816,23.3c-1.558.618-5.257.475-6.979.475s-5.426.137-6.979-.475a4,4,0,0,1-2.251-2.251C1.99,19.5,2.133,15.8,2.133,14.075S2,8.65,2.608,7.1A4,4,0,0,1,4.859,4.846c1.558-.618,5.257-.475,6.979-.475s5.426-.137,6.979.475A4,4,0,0,1,21.067,7.1c.618,1.558.475,5.257.475,6.979S21.685,19.5,21.067,21.054Z" transform="translate(0.005 -2.238)"/>
</svg>
