<svg xmlns="http://www.w3.org/2000/svg" width="27.172" height="19.105" viewBox="0 0 27.172 19.105">
  <path id="Icon_awesome-youtube" data-name="Icon awesome-youtube" d="M27.654,7.489a3.414,3.414,0,0,0-2.4-2.418C23.133,4.5,14.636,4.5,14.636,4.5s-8.5,0-10.616.571a3.414,3.414,0,0,0-2.4,2.418,35.815,35.815,0,0,0-.568,6.583,35.815,35.815,0,0,0,.568,6.583,3.363,3.363,0,0,0,2.4,2.379c2.119.571,10.616.571,10.616.571s8.5,0,10.616-.571a3.363,3.363,0,0,0,2.4-2.379,35.815,35.815,0,0,0,.568-6.583,35.815,35.815,0,0,0-.568-6.583Zm-15.8,10.623v-8.08l7.1,4.04-7.1,4.04Z" transform="translate(-1.05 -4.5)"/>
</svg>
