<svg xmlns="http://www.w3.org/2000/svg" width="57.09" height="57.088" viewBox="0 0 57.09 57.088">
  <path id="Icon_awesome-paint-brush" data-name="Icon awesome-paint-brush" d="M18.623,34.492c-4.473.288-8.533,1.991-10.837,8.062A1.7,1.7,0,0,1,6.16,43.666c-1.239,0-5.069-3.085-6.16-3.83,0,9.182,4.23,17.253,14.273,17.253,8.458,0,14.272-4.88,14.272-13.4a9.661,9.661,0,0,0-.108-1.018ZM51.055,0a6.809,6.809,0,0,0-4.483,1.834C23.78,22.194,21.409,22.673,21.409,28.666a10.323,10.323,0,0,0,.973,4.315L29.5,38.91a10.26,10.26,0,0,0,2.5.338c6.925,0,10.939-5.07,23.544-28.6a11.473,11.473,0,0,0,1.55-5.128C57.089,2.3,54.19,0,51.055,0Z" transform="translate(0.001)" fill="#a63f03"/>
</svg>
