<svg id="Ebene_1" data-name="Ebene 1" xmlns="http://www.w3.org/2000/svg" width="102.802" height="120.552" viewBox="0 0 102.802 120.552">
  <path id="Pfad_50" data-name="Pfad 50" d="M50.82,64.291a37.267,37.267,0,0,1,2.806-4.915,15.677,15.677,0,0,1,2.309-2.648,8.483,8.483,0,0,1,1.212-.915,5.151,5.151,0,0,1,2.157-.867,4.43,4.43,0,0,1,1.133,0l.285.036.285.079.606.158a11.92,11.92,0,0,1,4.078,2.788,22.034,22.034,0,0,1,4.084,4.812,23.839,23.839,0,0,0-3.03-4.387,14.6,14.6,0,0,0-4.084-3.375,5.611,5.611,0,0,0-4.09-.5,7.775,7.775,0,0,0-3.448,2.369A18.852,18.852,0,0,0,52.7,60.431,36.6,36.6,0,0,0,50.844,64.3" transform="translate(-20.027 -21.425)" fill="#030406"/>
  <path id="Pfad_51" data-name="Pfad 51" d="M76.87,59.71a24.918,24.918,0,0,1,6.139,12.762,23.905,23.905,0,0,0-1.515-4.2,25.04,25.04,0,0,0-4.618-8.563" transform="translate(-30.291 -23.528)" fill="#030406"/>
  <path id="Pfad_52" data-name="Pfad 52" d="M61.09,151.814l-.218.679-.248.673-.564,1.394c-.382.927-.788,1.818-1.212,2.709a19.8,19.8,0,0,1-1.473,2.5,7.533,7.533,0,0,1-1.818,1.9,2.7,2.7,0,0,1-1.939.558,3.394,3.394,0,0,1-1.576-1.163,11.2,11.2,0,0,1-2.2-4.8,18.18,18.18,0,0,1-.3-5.539,12.252,12.252,0,0,1,.17-1.4c.067-.467.133-.927.242-1.418.182-.964.406-1.933.606-2.9.606-2.878,1.4-5.787,2.036-8.805a43.116,43.116,0,0,0,1.018-8.035,35.754,35.754,0,0,0-.7-8.86,31.967,31.967,0,0,0-1.327-4.3l-.085-.2c-.291,1.26-.782,2.424-1.133,3.545a24.634,24.634,0,0,1,.673,2.733,33.516,33.516,0,0,1,.509,6.06,36.171,36.171,0,0,1-.4,6.06c-.606,4-1.636,7.914-2.424,11.859a37.619,37.619,0,0,0-.8,5.951,19.276,19.276,0,0,0,.654,5.9c.121.479.3.939.461,1.406a8.087,8.087,0,0,0,.606,1.339,9.338,9.338,0,0,0,1.685,2.369,5.211,5.211,0,0,0,1.1.879,3.194,3.194,0,0,0,.606.279,1.975,1.975,0,0,0,.636.079,3.812,3.812,0,0,0,2.5-.964,13.342,13.342,0,0,0,3.242-4.812c.406-.909.77-1.818,1.121-2.775a27.488,27.488,0,0,0,.921-2.83c.982-3.866,1.624-7.878,2.333-11.829-.861,3.969-1.654,7.987-2.788,11.8" transform="translate(-18.88 -45.234)" fill="#030406"/>
  <path id="Pfad_53" data-name="Pfad 53" d="M49.756,128.719c0,.236,0,.951-.079,2.036a37.827,37.827,0,0,1-.412,4.139,110.5,110.5,0,0,1-2.891,11.514c-.285,1.036-.564,2.085-.806,3.121s-.479,2.054-.636,3.115a23.506,23.506,0,0,0-.261,5.811,19.755,19.755,0,0,0,.824,4.151c.164.5.321.879.418,1.145a2.423,2.423,0,0,0,.17.394,11.562,11.562,0,0,0,3.175,4.139,6.248,6.248,0,0,0,1.394.812,4,4,0,0,0,.939.285,3.448,3.448,0,0,0,.9.073,5.684,5.684,0,0,0,1.654-.206,5.356,5.356,0,0,0,.757-.273,4.242,4.242,0,0,0,.7-.345,10.859,10.859,0,0,0,3.636-3.812,29.415,29.415,0,0,0,2.048-4.1c.285-.685.545-1.37.8-2.042s.533-1.473.727-2.175c.412-1.454.727-2.854,1.03-4.242.606-2.806,1.115-5.593,1.642-8.363.212-1.7.406-3.436.691-5.005s.709-3.266,1.139-4.915c.885-3.3,1.854-6.593,2.945-9.853-1.127,2.636-2.157,5.3-3.139,7.987a66.3,66.3,0,0,0-2.533,8.132c-.606,2.781-1.151,5.618-1.745,8.435-.3,1.406-.606,2.818-.939,4.242a42.532,42.532,0,0,1-1.176,4.2,38.929,38.929,0,0,1-2.763,6.4,11.853,11.853,0,0,1-2.169,2.83,4.848,4.848,0,0,1-3.381,1.333,2.66,2.66,0,0,1-.982-.17l-.442-.2a4.431,4.431,0,0,1-.4-.248,6.9,6.9,0,0,1-1.363-1.212,11.914,11.914,0,0,1-1.866-3.03,17.846,17.846,0,0,1-1.382-6.878,31.911,31.911,0,0,1,.788-6.932c.448-2.266.994-4.5,1.5-6.745s.976-4.478,1.26-6.739a40.6,40.6,0,0,0,.23-6.817" transform="translate(-17.576 -48.906)" fill="#030406"/>
  <path id="Pfad_54" data-name="Pfad 54" d="M89.873,88.678A48.055,48.055,0,0,0,87.54,80.63a39.772,39.772,0,0,1,1.345,7.932Z" transform="translate(-34.495 -31.771)" fill="#030406"/>
  <path id="Pfad_55" data-name="Pfad 55" d="M82.744,112.34c-.255,1.212-.436,2.133-.739,3.309a25.45,25.45,0,0,1-1.212,3.581c-.509,1.212-.988,2.363-1.46,3.557-.939,2.382-1.818,4.775-2.666,7.205-.412,1.212-.806,2.424-1.145,3.69s-.606,2.521-.861,3.769c.321-1.242.606-2.485,1.024-3.727s.842-2.424,1.309-3.636c.933-2.388,1.939-4.739,2.981-7.072.521-1.163,1.054-2.327,1.606-3.466a27.532,27.532,0,0,0,1.436-3.636c.333-1.1.606-2.424.873-3.49Z" transform="translate(-29.42 -44.265)" fill="#030406"/>
  <path id="Pfad_56" data-name="Pfad 56" d="M45.786,71.041a49.3,49.3,0,0,1,2.23-6.011,34.262,34.262,0,0,1,3.327-6.793,14.229,14.229,0,0,1,2.466-2.891,6.393,6.393,0,0,1,3.442-1.606,6.708,6.708,0,0,1,3.7.885,13.332,13.332,0,0,1,3.03,2.285,13.047,13.047,0,0,0-3.03-2.424,6.3,6.3,0,0,0-.879-.448c-.151-.067-.3-.139-.454-.194l-.485-.145a5.121,5.121,0,0,0-2.018-.23,6.733,6.733,0,0,0-3.684,1.618,14.683,14.683,0,0,0-2.618,2.939A26.432,26.432,0,0,0,49.325,60.5c-.382.727-.745,1.466-1.079,2.212a52.714,52.714,0,0,0-1.915,4.945c-.43,1.588-.8,1.976-1.121,3.581Z" transform="translate(-17.817 -21.061)" fill="#030406"/>
  <path id="Pfad_57" data-name="Pfad 57" d="M31.283,74.271a28.4,28.4,0,0,0-1.7-5.387c-.388-.927-.818-1.818-1.212-2.763s-.806-1.885-1.1-2.818a21.816,21.816,0,0,1-1.212-5.939,23.821,23.821,0,0,1,.527-6.06c.606-.236,1.212-.448,1.818-.642a22.209,22.209,0,0,0-.315,7.217A22.306,22.306,0,0,0,30.3,64.684q.182.454.382.909l.412.951c.3.667.606,1.339.842,2.036q.218.564.418,1.145c1.394-6.06,3.357-14.416,4.587-17.834a54.207,54.207,0,0,0,4.375-19.052c-.194-.085-.388-.17-.606-.242l-.57-.158-.285-.079h-.285a2.594,2.594,0,0,0-.57-.036,2.969,2.969,0,0,0-.57.042,5.06,5.06,0,0,0-2.151.873,8.7,8.7,0,0,0-1.212.909,15.411,15.411,0,0,0-2.345,2.618,36.863,36.863,0,0,0-2.812,4.915,36.594,36.594,0,0,1,1.854-3.872A19.058,19.058,0,0,1,34.192,34.3a7.793,7.793,0,0,1,3.454-2.369,5.339,5.339,0,0,1,3.636.291v-.285a5.745,5.745,0,0,0-2.7-.424,6.345,6.345,0,0,0-3.43,1.588,14.228,14.228,0,0,0-2.466,2.891,34.6,34.6,0,0,0-3.339,6.793,64.558,64.558,0,0,0-1.86,7.193l-.945.23c.321-1.606.691-3.206,1.121-4.793.564-1.673,1.212-3.327,1.921-4.945.333-.745.7-1.485,1.079-2.206a25.762,25.762,0,0,1,1.46-2.478,14.684,14.684,0,0,1,2.654-2.939,6.751,6.751,0,0,1,3.69-1.618,5.151,5.151,0,0,1,2.018.23l.479.145a2.89,2.89,0,0,1,.315.133,38.347,38.347,0,0,0-.8-7.878C37.6,10.121,29.635,1.267,21.06.177,7.88-1.5,5.638,9.388,4.626,13.611S2.529,27.27,3.1,32.561c.473,4.278,3.472,19.064,2.218,26.324S.687,79.119.051,87.063,5.6,101.037,12.885,101.607s11.865-6.423,13.435-9.375S30,79.616,31.017,75.386c.073-.315.164-.7.267-1.133" transform="translate(-0.006 -0.002)" fill="#030406"/>
  <path id="Pfad_58" data-name="Pfad 58" d="M61.169,101.7a.5.5,0,0,0-.218-.042h-.17a.358.358,0,0,1-.242-.091.206.206,0,0,0-.151-.127h0c-.176,0-.521-.485-.606-.812a5.89,5.89,0,0,1-.042-.673,3.9,3.9,0,0,1,.152-1.212c.37-1.212.606-1.818.873-2.618.176-.479.37-1.091.454-1.351a7.932,7.932,0,0,1,.485-1.133c.042,0,.067-.109.085-.2s.194-.545.394-1.067a10.344,10.344,0,0,0,.406-1.06.927.927,0,0,1,.152-.351,10.813,10.813,0,0,0,.418-1.091c.327-.982,1.212-3.575,1.436-4.121a4.46,4.46,0,0,0,.242-.764l.327-1.024a4.989,4.989,0,0,0,.242-.873.388.388,0,0,1,.279-.412.679.679,0,0,1,.285-.109l.133.042a3.962,3.962,0,0,0,.5.127,4.238,4.238,0,0,1,.715.133,2.865,2.865,0,0,0,.606.085l1-.042h.309a1.709,1.709,0,0,0,.412.042l1.527.085A3.03,3.03,0,0,0,71.737,83h.418a.867.867,0,0,0,.218.042h.042c.194,0,.606.327.606.5h0a.964.964,0,0,1-.764.606.127.127,0,0,1-.127-.067c-.048-.109-.218-.176-.436-.176h-.218a.848.848,0,0,1-.267,0h-.454a1.715,1.715,0,0,0-.351,0,.642.642,0,0,0-.327.048A.866.866,0,0,1,69.84,84l-.248.042a9.878,9.878,0,0,0-1.7.176V84.5a39.577,39.577,0,0,1-1.327,4.915l-.351,1.03h.2a5.252,5.252,0,0,0,.757-.024l.764-.042a2.223,2.223,0,0,1,.479.042l.521.109a.418.418,0,0,1,.309.152l.17.194a.07.07,0,0,1,.067.067.6.6,0,0,1-.109.176,1.1,1.1,0,0,1-.782.285,1.587,1.587,0,0,1-.309-.042,1.818,1.818,0,0,0-.654-.091,4.473,4.473,0,0,0-1.157.152l-.545.115c-.3.915-.5,1.351-.606,1.818l-1.048,2.685-.479,1.285c-.109.394-.261.812-.3.939s-.2.545-.327.939c-.606,2.006-.606,2.048-1.291,2.357a2.605,2.605,0,0,1-.545.218c-.042,0-.067,0-.109-.067" transform="translate(-23.54 -32.535)" fill="#030406"/>
  <path id="Pfad_59" data-name="Pfad 59" d="M75.788,103.706a1.715,1.715,0,0,0-.394-.067.394.394,0,0,1-.351-.194.388.388,0,0,0-.285-.194,2.891,2.891,0,0,1-.915-1.03c-.042-.109-.109-.194-.151-.194s-.085-.067-.085-.151,0-.151-.042-.151a4.636,4.636,0,0,1-.394-1.418,5.781,5.781,0,0,1-.091-1.139,6.156,6.156,0,0,1,.109-1.212,18.664,18.664,0,0,1,.854-2.182,1.509,1.509,0,0,0,.176-.479.485.485,0,0,1,.151-.242,3.715,3.715,0,0,0,.564-.939A1.636,1.636,0,0,1,75.2,93.7a.236.236,0,0,0,.109-.176.061.061,0,0,0-.067-.067h-.091A.194.194,0,0,1,75,93.4a.158.158,0,0,1-.042-.115.388.388,0,0,1,.109-.236,1.43,1.43,0,0,1,.394-.37c.109-.067.218-.176.218-.218s.109-.151.236-.2a3.03,3.03,0,0,1,1.212-.279,1.945,1.945,0,0,1,.891.194,3.164,3.164,0,0,0,.5.176,4.345,4.345,0,0,1,1.291.721c.606.539.806.782.891,1.109a2.321,2.321,0,0,0,.151.418l.242.539a3.03,3.03,0,0,1,.176,1.212,1.709,1.709,0,0,1-.218,1.133.824.824,0,0,0-.151.285h0l.127-.067a4.848,4.848,0,0,1-.715,1.351,6.06,6.06,0,0,0-.812,1.333,4.884,4.884,0,0,1-.545.7,1.975,1.975,0,0,0-.454.654,2.7,2.7,0,0,1-.5.606,1.885,1.885,0,0,0-.479.564c0,.176-.133.327-.545.606a1.46,1.46,0,0,1-.806.261,1.43,1.43,0,0,1-.436-.085m1.309-3.121a6.108,6.108,0,0,0,.606-.715,1.57,1.57,0,0,1,.394-.461,3.776,3.776,0,0,0,.564-.788,1.212,1.212,0,0,1,.267-.388,2.388,2.388,0,0,0,.3-.461,4.188,4.188,0,0,1,.327-.461.127.127,0,0,0,.067-.127,1.17,1.17,0,0,1,.194-.351c.218-.236.218-.285.218-.982s-.042-.764-.176-.915a2.06,2.06,0,0,1-.327-.5,1.024,1.024,0,0,0-.654-.521c-.042,0-.085,0-.109.042a.57.57,0,0,0-.061.285,1.757,1.757,0,0,1-.5,1.006,5.975,5.975,0,0,0-.606,1.042c-.194.418-.394.854-.461.964a1.509,1.509,0,0,0-.1.545.788.788,0,0,1-.067.388,11.588,11.588,0,0,0-.745,1.745,3.848,3.848,0,0,0-.127,1.048c0,.218,0,.37.061.394h.048c.109,0,.261-.151.873-.788" transform="translate(-28.797 -36.242)" fill="#030406"/>
  <path id="Pfad_60" data-name="Pfad 60" d="M87.069,104.863a.264.264,0,0,1-.218-.091,2.424,2.424,0,0,0-.606-.394c-.133-.042-.37-.436-.739-1.285a1.5,1.5,0,0,1-.176-.606v-.242a9.55,9.55,0,0,1,.7-2.1c.133-.327.333-.891.461-1.26a12.989,12.989,0,0,1,.461-1.273,7.648,7.648,0,0,0,.351-.848,14.484,14.484,0,0,1,.721-1.721l.194-.436c0-.151.067-.2.151-.2h.109a2.309,2.309,0,0,1,.915.261c0,.042.133.067.309.067.279,0,.345.067.564.3a2.751,2.751,0,0,1,.57,1.291,1.818,1.818,0,0,1-.133.412,2.345,2.345,0,0,0-.261.606L89.96,98.6a7.272,7.272,0,0,0-.527,1.636l-.042.218c0,.061.042.085.109.085.2,0,.285-.085.418-.3l.218-.327a.958.958,0,0,1,.236-.285.309.309,0,0,0,.133-.176,18.452,18.452,0,0,1,1.46-1.939.339.339,0,0,0,.109-.261,2.672,2.672,0,0,1,.933-.982,1.491,1.491,0,0,0,.394-.152,2.272,2.272,0,0,1,.7-.194h.236c.176,0,.218.042.327.176a.758.758,0,0,0,.5.242c.218,0,.418.085.436.151a3.538,3.538,0,0,0,.37.454c.242.261.285.327.285.606v.2A3.757,3.757,0,0,1,96,98.8a2.042,2.042,0,0,0-.2.806v.285c0,.127-.067.194-.218.3a.818.818,0,0,1-.521.151.945.945,0,0,1-.7-.261.642.642,0,0,0-.418-.176.236.236,0,0,1-.236-.176,2.26,2.26,0,0,0-.176-.412,2.757,2.757,0,0,1-.461-1.376V97.9c0-.218-.042-.351-.127-.351s-.109.048-.2.158l-.394.394a3.745,3.745,0,0,0-.564.739,15.828,15.828,0,0,1-1.333,1.818l-.261.3c-.042.085-.194.285-.3.461a1.648,1.648,0,0,0-.2.327l-.37.436c-.194.218-.37.412-.394.454a2.606,2.606,0,0,1-.454.654c-.091,0-.309.527-.418.915a1.734,1.734,0,0,1-.194.5c-.091.176-.176.261-.37.261Z" transform="translate(-33.624 -37.2)" fill="#030406"/>
  <path id="Pfad_61" data-name="Pfad 61" d="M104.443,104.961a2.351,2.351,0,0,0-.412-.133,1.285,1.285,0,0,1-.873-.848,4.375,4.375,0,0,1-.2-1.485,4.847,4.847,0,0,1,.158-1.376l.17-.782a2.157,2.157,0,0,1,.2-.721,1.316,1.316,0,0,0,.085-.285h0a19.6,19.6,0,0,1,.606-2.23l.2-.721a7.81,7.81,0,0,1,.309-.921c.151-.454.3-.848.3-.915a1.164,1.164,0,0,1,.194-.345c.133-.176.218-.267.327-.267h0a.424.424,0,0,0,.242-.042h.085l.412.085h.267a.527.527,0,0,1,.218.048.309.309,0,0,0,.127,0,.436.436,0,0,0,.151,0,.206.206,0,0,1,.133-.048.044.044,0,0,1,.042.048.2.2,0,0,0,.109.042h.067c.133,0,.3.109.654.394a1,1,0,0,1,.176.454,1.911,1.911,0,0,1,.042.285.824.824,0,0,1-.085.351,2.739,2.739,0,0,0-.158.606,2.563,2.563,0,0,1-.127.7,1.212,1.212,0,0,0-.109.436v.042c0,.067,0,.176-.067.2a.3.3,0,0,0-.067.194h0a1.26,1.26,0,0,1-.109.412c-.109.37-.479,1.66-.564,2.054l-.218.806a3.211,3.211,0,0,0-.133.7c0,.085,0,.109.042.109h0c.042,0,.127-.151.194-.309a.9.9,0,0,1,.176-.3,7.914,7.914,0,0,0,.606-.939,5.587,5.587,0,0,1,.654-.933.182.182,0,0,0,.042-.133,1.29,1.29,0,0,1,.133-.3,8.337,8.337,0,0,0,.436-.812,8.588,8.588,0,0,1,.5-.873.854.854,0,0,0,.194-.327,1,1,0,0,1,.151-.261.418.418,0,0,1,.376-.194.654.654,0,0,0,.454-.261,4.3,4.3,0,0,1,1.963-.873l.57-.048h.345a1.655,1.655,0,0,1,.448-.067.715.715,0,0,1,.545.218.77.77,0,0,1,.345.654,3.211,3.211,0,0,1-.127.739l-.158.812h0a2.751,2.751,0,0,1-.2.636c-.109.3-.236.606-.261.739a1.994,1.994,0,0,1-.218.606,2.424,2.424,0,0,0-.176.479h0a2.344,2.344,0,0,1-.151.5,3.388,3.388,0,0,0-.151.479,3.847,3.847,0,0,1-.242.564,2.127,2.127,0,0,0-.17.606v.042h.042c.042,0,.194-.151.521-.564a26.228,26.228,0,0,0,2.291-3.139h0A2.424,2.424,0,0,1,116.09,98c.17-.242.327-.5.37-.57a.551.551,0,0,1,.285-.152.921.921,0,0,0,.412-.327,2.692,2.692,0,0,1,.261-.3,2.467,2.467,0,0,0,.418-.461c.388-.545.454-.564,1.745-.782a3.028,3.028,0,0,1,.479,0,.739.739,0,0,1,1.048.545,1.024,1.024,0,0,1,.061.351,2.593,2.593,0,0,1-.085.606,8.679,8.679,0,0,1-.285.957,4.527,4.527,0,0,0-.151.636,10.2,10.2,0,0,1-.3,1.091c-.133.436-.309,1-.351,1.212l-.285,1.006a3.7,3.7,0,0,0-.176.673c0,.091,0,.109.091.109h0a.1.1,0,0,0,.109-.085h0c0-.042.048-.085.109-.109a3.175,3.175,0,0,0,.545-.606,15.677,15.677,0,0,1,1.551-1.818,3.793,3.793,0,0,0,.606-.715l.521-.721a2.247,2.247,0,0,1,0,.412.994.994,0,0,1-.109.418,9.253,9.253,0,0,1-.854,1.109,13.285,13.285,0,0,0-1.654,1.988,1.06,1.06,0,0,1-.327.3.168.168,0,0,0-.151.091,1.291,1.291,0,0,1-.285.345,1.036,1.036,0,0,0-.261.37h0c0,.067-.109.194-.242.3a1.127,1.127,0,0,0-.285.327c-.042.133-.764.327-1.157.327h-.127a2.849,2.849,0,0,1-.436-.176,3.5,3.5,0,0,1-.873-.939.151.151,0,0,0-.109-.151h0c-.085,0-.127-.327-.127-.679a2.709,2.709,0,0,1,.127-.957.909.909,0,0,0,.121-.4,7.035,7.035,0,0,1,.454-1.569,5.793,5.793,0,0,0,.394-1.436c0-.067,0-.109-.067-.109s-.176.127-.327.412a21.939,21.939,0,0,1-1.57,2.248,11,11,0,0,0-1.376,1.963,4.417,4.417,0,0,1-1,1.37h0a.43.43,0,0,1-.242-.127l-.151-.176c-.176.261-.279.327-.279.461l.042.127h-1.182c-.151,0-.236,0-.236-.042s-.109-.091-.218-.091h-.091c-.194,0-.345-.085-.654-.37s-.279-.285-.327-.764V102.8a7.775,7.775,0,0,1,.327-1.654c.109-.436.764-2.315.957-2.818a.66.66,0,0,0,.067-.261h0a.406.406,0,0,1,.109-.267.776.776,0,0,0,.194-.436c0-.042,0-.061-.042-.061a3.636,3.636,0,0,0-.673,1,.945.945,0,0,1-.285.37,1.7,1.7,0,0,0-.394.527,23.087,23.087,0,0,1-1.485,2.309,7.634,7.634,0,0,0-.436.721l-.151.261a4.478,4.478,0,0,0-.327.57c-.218.412-.37.673-.436.673s0,0,0-.042h0a2.242,2.242,0,0,1,.376-.745.721.721,0,0,0,.152-.285c0-.042,0-.042-.042-.042s-.158.133-.285.351a8.024,8.024,0,0,1-.57.806,3.818,3.818,0,0,0-.436.739l-.067.267a9.521,9.521,0,0,1-1.351.17.339.339,0,0,1-.152,0" transform="translate(-40.569 -36.995)" fill="#030406"/>
  <path id="Pfad_62" data-name="Pfad 62" d="M90.344,132.7c-.091,0-.461-.042-.83-.067-.606,0-.679,0-.848-.152a2.653,2.653,0,0,0-.606-.351,4.283,4.283,0,0,1-.37-.3,2.5,2.5,0,0,1-.83-1.679v-.218c0-1.569,1.745-3.3,1.745-3.3h.109c.109,0,.127,0,.127.091v.042c0,.042,0,.085.048.085s-1.509,1.685-1.551,3.03v.2a1.782,1.782,0,0,0,.042.545,1.77,1.77,0,0,1,.176.37,1.661,1.661,0,0,0,.351.436.606.606,0,0,0,.5.152h.358a2.018,2.018,0,0,0,1.067-.242,3.853,3.853,0,0,0,1.745-1.915,2.175,2.175,0,0,0,.285-1.182v-.454a6.368,6.368,0,0,0-.176-1.309,7.793,7.793,0,0,1-.152-1.266v-.152a8.411,8.411,0,0,1,.606-2.163.83.83,0,0,0,.133-.194c0-.133.57-.57.764-.606a8.612,8.612,0,0,1,1.333-.151,2.176,2.176,0,0,1,.824.194A1.212,1.212,0,0,1,96,123.15a2.012,2.012,0,0,0,.109.5.57.57,0,0,1,.061.261,2.854,2.854,0,0,1-.127.521c-.042.133-.091.152-.285.152h-.218v-.673a1.46,1.46,0,0,0-.267-1.006.412.412,0,0,1-.127-.218.079.079,0,0,0-.091-.085.606.606,0,0,0-.345.151.824.824,0,0,0-.351.636l.042.388a10.671,10.671,0,0,0-.152,2.1,5.611,5.611,0,0,0,.042.957,11.514,11.514,0,0,1,.376,2.491,2.333,2.333,0,0,1-.048.479l-.133.661a2.557,2.557,0,0,1-.764,1.176,3.4,3.4,0,0,1-1.212.83,2.169,2.169,0,0,1-.873.242l-.964.042a1.266,1.266,0,0,1-.345,0" transform="translate(-34.227 -48.051)" fill="#030406"/>
  <path id="Pfad_63" data-name="Pfad 63" d="M104.84,133.534a1.582,1.582,0,0,1-.606-.176,2.194,2.194,0,0,1-.57-.394.261.261,0,0,0-.194-.151c-.133,0-.461-.5-.957-1.485a4.206,4.206,0,0,1-.461-1.333,5.63,5.63,0,0,1-.042-.673,6.575,6.575,0,0,1,.436-2.382,9.053,9.053,0,0,1,.915-1.854.321.321,0,0,0,.127-.218.491.491,0,0,1,.115-.151,1.776,1.776,0,0,0,.236-.345,5.545,5.545,0,0,1,.806-.939c.527-.521.654-.654.812-.654l.236.042c.042,0,.067,0,.067-.042l-.042-.133c0-.127.151-.194.454-.194h.351a5.218,5.218,0,0,1,1.721.345.333.333,0,0,0,.218.067c.067,0,.218.127.37.261a1.254,1.254,0,0,1,.327.721,5.382,5.382,0,0,1,.067.939,1.479,1.479,0,0,1-.067.606,1.818,1.818,0,0,0-.279.327c-.109.133-.218.242-.267.242h0a1.861,1.861,0,0,1-.067-.606c0-.57-.176-1.212-.351-1.212-.042,0-.17.109-.261.236a3.694,3.694,0,0,1-.37.418.527.527,0,0,0-.151.236,2.424,2.424,0,0,1-.261.418,1.739,1.739,0,0,0-.351.606,4.8,4.8,0,0,1-.654,1.266,1.952,1.952,0,0,0-.412.83.079.079,0,0,1-.067.085,6.465,6.465,0,0,0-.37.7,3.4,3.4,0,0,0-.418,1.418c-.042.5-.061.854-.061,1.091,0,.327.042.461.1.461.2,0,.436-.151.854-.545a6.666,6.666,0,0,1,1.212-.939,1.6,1.6,0,0,0,.351-.261,2.806,2.806,0,0,1,.606-.5c.436-.285,2.794-2.139,3.03-2.357a.667.667,0,0,1,.3-.151c.042,0,.091,0,.091-.067s.109-.127.218-.194a.212.212,0,0,1,.127-.042h.2c.17,0,.261.091.261.176a.236.236,0,0,1-.109.176,1.818,1.818,0,0,0-.479.412c0,.048-.109.176-.218.267s-.242.194-.242.236a28.856,28.856,0,0,1-2.424,2.424,11.624,11.624,0,0,0-.964.957,2.14,2.14,0,0,1-.388.412c0,.091-.2.133-.309.242-.436.479-.564.285-.606.479-.109.436-.606.721-1.4.812Z" transform="translate(-40.197 -48.248)" fill="#030406"/>
  <path id="Pfad_64" data-name="Pfad 64" d="M121.6,131.3c-.194-.327-.194-.739-.261-2.466,0-1.067.5-2.072,1.551-4.557h0s-.048-.042-.067-.042c-.133,0-.83.854-.873.854-.176,0-.394.279-.873.739a2.315,2.315,0,0,0-.57.606,17.794,17.794,0,0,0-1.7,2.248c-.242.5-.394.436-.485.891l-.218.7c-.085.345-.17.606-1.309.715a.97.97,0,0,1-.7-.3,1.26,1.26,0,0,1-.606-1.267v-.479a9.012,9.012,0,0,1,.679-2.509,9.86,9.86,0,0,1,.7-2.006h0c0-.218,1.157-2.921,1.157-2.988s.479-.957.606-1.285.5-1.024.606-1.309a6.908,6.908,0,0,1,.545-1.212,2.7,2.7,0,0,0,.218-.854v-.606h.327c.5,0,.982.545,1.212.545a1.922,1.922,0,0,1,.915,1.594,5.2,5.2,0,0,1-.479,1.873,8.314,8.314,0,0,0-.394,1.376,17.532,17.532,0,0,1-.873,2.248,12.67,12.67,0,0,0-.564,1.418,2.533,2.533,0,0,0-.285.806v.067s.37-.461.521-.461a1.085,1.085,0,0,0,.454-.327l1.7-1.636c.351-.345.479-.3.606-.521a.679.679,0,0,1,.5-.261c.133,0,.176.152.394.152.109,0,.2.042.2.109a.667.667,0,0,0,.479.3h.109c.436,0,1.157,1.048,1.157,1.594s-.461,1.091-.461,1.212a4.945,4.945,0,0,1-.461,1.242c-.152.242-.654,1.485-.824,1.7a1.157,1.157,0,0,0-.176.3h0c0,.042-.133.176-.242.3-.606.485-.806.745-.848.9s-.37.545-.5.545h-.067c-.285,0-.327.654-.5.654s-.109-.194-.261-.545" transform="translate(-45.507 -45.774)" fill="#030406"/>
  <path id="Pfad_65" data-name="Pfad 65" d="M136.638,127.978a1.715,1.715,0,0,0-.394-.067.394.394,0,0,1-.345-.194.418.418,0,0,0-.285-.2c-.158,0-.788-.715-.921-1.024-.042-.109-.1-.194-.152-.194s-.085-.067-.085-.151,0-.152-.042-.152a4.636,4.636,0,0,1-.394-1.418,5.783,5.783,0,0,1-.091-1.139,5.667,5.667,0,0,1,.115-1.212,17.573,17.573,0,0,1,.848-2.182,1.509,1.509,0,0,0,.176-.479.509.509,0,0,1,.152-.242,3.848,3.848,0,0,0,.564-.939,1.636,1.636,0,0,1,.267-.412.236.236,0,0,0,.109-.176.061.061,0,0,0-.067-.067H136a.212.212,0,0,1-.152-.061.158.158,0,0,1-.042-.115.388.388,0,0,1,.109-.236,1.43,1.43,0,0,1,.394-.37c.109-.067.218-.176.218-.218s.109-.152.236-.2a3.03,3.03,0,0,1,1.212-.279,1.988,1.988,0,0,1,.9.194,3.163,3.163,0,0,0,.5.176,4.273,4.273,0,0,1,1.291.721c.606.539.806.782.891,1.109a1.935,1.935,0,0,0,.158.412l.236.545a3.03,3.03,0,0,1,.176,1.212,1.709,1.709,0,0,1-.218,1.133.824.824,0,0,0-.151.285h0l.127-.067a4.848,4.848,0,0,1-.715,1.351,6.126,6.126,0,0,0-.806,1.333,5.818,5.818,0,0,1-.545.7,2.018,2.018,0,0,0-.461.654,2.7,2.7,0,0,1-.5.606,1.884,1.884,0,0,0-.479.564c0,.176-.133.327-.545.606a1.46,1.46,0,0,1-.806.261,1.43,1.43,0,0,1-.436-.085m0-12.871c-.57-.109-.721-.151-1.024-.521a2.025,2.025,0,0,0-.479-.351l-.067-.061v-.133c0-.152-.109-.327-.327-.606-.109-.133-.17-.176-.17-.285l.085-.3a1.878,1.878,0,0,0,.042-.461l.152-.412a1.079,1.079,0,0,0,.151-.418,3.072,3.072,0,0,1,.158-.606c.109-.3.17-.412.3-.412l.848.261c.218.042.309.109.309.151s.067.109.218.109l.194-.042.067.042c0,.042.152.151.3.218.376.194.485.3.9.939l.261.412-.3,1.048c0,.194-.067.412-.109.412s-.067.109-.067.2a.533.533,0,0,1-.085.261l-.176.37c-.042.152-.091.218-.261.218a.509.509,0,0,1-.309-.109c0-.042-.067-.085-.085-.085s-.067.042-.067.127a.121.121,0,0,1-.127.109Zm1.309,9.75a6.108,6.108,0,0,0,.606-.715,1.57,1.57,0,0,1,.394-.461,3.811,3.811,0,0,0,.57-.788,1.212,1.212,0,0,1,.261-.388,2.11,2.11,0,0,0,.3-.461,5.331,5.331,0,0,1,.327-.461.127.127,0,0,0,.067-.127,1.17,1.17,0,0,1,.194-.351c.218-.236.218-.285.218-.982s-.042-.764-.17-.915a1.757,1.757,0,0,1-.327-.5,1.054,1.054,0,0,0-.654-.521c-.048,0-.091,0-.109.042a.509.509,0,0,0-.067.285,1.727,1.727,0,0,1-.5,1,6.788,6.788,0,0,0-.606,1.048c-.194.418-.394.854-.454.964a1.388,1.388,0,0,0-.109.545.788.788,0,0,1-.067.388,11.587,11.587,0,0,0-.745,1.745,3.848,3.848,0,0,0-.127,1.048c0,.218,0,.37.067.394H137c.109,0,.261-.151.873-.788m3.6-9.75c-.57-.109-.721-.152-1.024-.521a1.891,1.891,0,0,0-.485-.351l-.061-.061v-.133c0-.151-.109-.327-.327-.606-.109-.133-.176-.176-.176-.285l.091-.3a1.878,1.878,0,0,0,.042-.461l.151-.412a1.079,1.079,0,0,0,.151-.418,3.073,3.073,0,0,1,.158-.606c.109-.3.17-.412.3-.412l.848.261c.218.042.309.109.309.151s.067.109.218.109l.194-.042.067.042c0,.042.151.151.3.218.376.194.485.3.9.939l.261.412-.3,1.048c0,.194-.067.412-.109.412s-.067.109-.067.2a.533.533,0,0,1-.085.261l-.176.37c-.042.151-.091.218-.261.218a.509.509,0,0,1-.309-.109c0-.042-.067-.085-.085-.085s-.067.042-.067.127a.121.121,0,0,1-.133.109Z" transform="translate(-52.773 -43.548)" fill="#030406"/>
  <path id="Pfad_66" data-name="Pfad 66" d="M148.512,132.238a2.68,2.68,0,0,0-.57-.085,2,2,0,0,1-1.7-1.157,1.079,1.079,0,0,1-.17-.606v-.37a3.435,3.435,0,0,1,.2-.982,8.631,8.631,0,0,0,.261-.848c.085-.267.176-.57.218-.654a6.233,6.233,0,0,0,.261-.745l.545-1.485c.194-.454.412-1.024.479-1.212l.418-1.151a7.967,7.967,0,0,0,.327-.921.164.164,0,0,1,.085-.152c.042,0,.085-.085.085-.194a.418.418,0,0,1,.091-.242,1.012,1.012,0,0,0,.218-.327c.176-.394.394-.606.564-.606a.206.206,0,0,1,.176.127.23.23,0,0,0,.2.133h0a.527.527,0,0,1,.285.151.364.364,0,0,0,.261.133l.327-.042h.091a.339.339,0,0,0,.194.042h0a1.818,1.818,0,0,1,.891.812l.042.218a1.388,1.388,0,0,1-.236.715,2.666,2.666,0,0,0-.218.606,3.714,3.714,0,0,1-.242.673c-.109.2-.83,2.1-.83,2.206a1.4,1.4,0,0,1-.17.412,31.985,31.985,0,0,0-1.157,3.557v.042h0l.133-.067a.661.661,0,0,0,.194-.261,28.21,28.21,0,0,1,1.618-2.375.545.545,0,0,0,.151-.285.224.224,0,0,1,.133-.151.424.424,0,0,0,.127-.133,4.424,4.424,0,0,1,.57-.848,2.054,2.054,0,0,0,.261-.418,5.545,5.545,0,0,1,.606-.806,2.726,2.726,0,0,0,.394-.545,8.4,8.4,0,0,1,.9-1.024c.824-.873.915-.939,1.176-.982a.745.745,0,0,1,.394.067,1.127,1.127,0,0,0,.606.109h.5c.085,0,.151,0,.17.067a.151.151,0,0,0,.133.085h.067c.152,0,.37.2.564.545a1.03,1.03,0,0,1,.158.545,7.665,7.665,0,0,1-.745,2.424,8.833,8.833,0,0,0-.394,1.073l-.127.327a3.03,3.03,0,0,0-.37.915h0a2.351,2.351,0,0,0,.545-.412c.261-.242,1.527-1.242,1.636-1.327.279-.2.7-.57.806-.606a3.187,3.187,0,0,0,.394-.218h.061a.291.291,0,0,1,.267.218h0a.143.143,0,0,1-.109.109c-.042,0-.721.782-1.006,1.091s-1.66,1.46-1.818,1.636-.394.436-.521.606a7.237,7.237,0,0,1-1.006,1.024c-.042,0-.127.085-.194.194s-.133.218-.176.218-.085.109-.152.218a1.139,1.139,0,0,1-1.024.636.739.739,0,0,1-.309-.042l-.5-.176a1.715,1.715,0,0,1-.83-1.091,2.587,2.587,0,0,1-.024-.733,4.46,4.46,0,0,1,.327-1.7,3.429,3.429,0,0,1,.351-.606.5.5,0,0,0,.109-.218,3.208,3.208,0,0,1,.218-.479,6.226,6.226,0,0,0,.261-.606c.042-.121.085-.218.133-.236s.061-.067.061-.152a4.742,4.742,0,0,1,.309-.654,3.484,3.484,0,0,0,.37-1.139c0-.042,0-.085-.042-.085a1.89,1.89,0,0,0-.521.606v.048c0,.042-.048.061-.115.109a11.3,11.3,0,0,0-1.739,2.351c-.394.654-.83,1.309-.939,1.442a4.448,4.448,0,0,0-.436.606,2.5,2.5,0,0,1-.327.479.321.321,0,0,0-.109.176,4.018,4.018,0,0,1-.37.57c-.2.261-.418.606-.485.7-.279.479-.933,1.115-1.176,1.115Z" transform="translate(-57.557 -47.48)" fill="#030406"/>
</svg>
