<svg id="Ebene_1" data-name="Ebene 1" xmlns="http://www.w3.org/2000/svg" width="79.37" height="64.729" viewBox="0 0 79.37 64.729">
  <path id="Pfad_69" data-name="Pfad 69" d="M9.49,64.729,7.416,60.222C19,53.506,27.744,45.213,26.437,30.609a54.4,54.4,0,0,1-11.584,1.938A15.145,15.145,0,0,1,.34,19.972,16.632,16.632,0,0,1,9.625,1.447,17.128,17.128,0,0,1,29.457,5.954c7.978,9.916,7.482,21.229,4.507,32.588C30.223,50.937,21.434,59.005,9.49,64.729Z" transform="translate(0.02 -0.001)"/>
  <path id="Pfad_70" data-name="Pfad 70" d="M19.08,64.693,17.141,60.5c15.911-10.772,21.41-20.012,18.029-29.658a47.6,47.6,0,0,1-11,1.848,15.054,15.054,0,0,1-14.108-12.3A16.632,16.632,0,0,1,19.08,1.636,17.353,17.353,0,0,1,39.047,5.467c6.851,8.023,7.257,17.669,5.679,27.4C42.247,48.016,33.142,58.112,19.08,64.693Z" transform="translate(33.88 -0.009)"/>
</svg>
