<svg xmlns="http://www.w3.org/2000/svg" width="62.534" height="62.551" viewBox="0 0 62.534 62.551">
  <path id="Icon_ionic-ios-settings" data-name="Icon ionic-ios-settings" d="M61.872,35.767a8.047,8.047,0,0,1,5.162-7.507,31.9,31.9,0,0,0-3.86-9.3,8.155,8.155,0,0,1-3.273.7,8.029,8.029,0,0,1-7.345-11.3A31.8,31.8,0,0,0,43.275,4.5a8.04,8.04,0,0,1-15.015,0,31.9,31.9,0,0,0-9.3,3.86,8.029,8.029,0,0,1-7.345,11.3,7.889,7.889,0,0,1-3.273-.7A32.6,32.6,0,0,0,4.5,28.276a8.038,8.038,0,0,1,5.162,7.507,8.056,8.056,0,0,1-5.146,7.507,31.9,31.9,0,0,0,3.86,9.3,8.032,8.032,0,0,1,10.6,10.6,32.083,32.083,0,0,0,9.3,3.86,8.025,8.025,0,0,1,14.982,0,31.9,31.9,0,0,0,9.3-3.86,8.04,8.04,0,0,1,10.6-10.6,32.083,32.083,0,0,0,3.86-9.3A8.085,8.085,0,0,1,61.872,35.767ZM35.914,48.779A13.028,13.028,0,1,1,48.942,35.751,13.024,13.024,0,0,1,35.914,48.779Z" transform="translate(-4.5 -4.5)" fill="#a63f03"/>
</svg>
